<svg viewBox="0 0 24 24" fill="none" xmlns="http://www.w3.org/2000/svg">
    <path d="M11.0448 1.10384C11.5486 0.521699 12.4514 0.5217 12.9552 1.10384L14.9471 3.40571C15.2079 3.70711 15.5956 3.86774 15.9932 3.83903L19.0293 3.61983C19.7972 3.5644 20.4356 4.20283 20.3802 4.97067L20.161 8.0068C20.1323 8.40435 20.2929 8.79213 20.5943 9.05295L22.8962 11.0448C23.4783 11.5486 23.4783 12.4514 22.8962 12.9552L20.5943 14.9471C20.2929 15.2079 20.1323 15.5956 20.161 15.9932L20.3802 19.0293C20.4356 19.7972 19.7972 20.4356 19.0293 20.3802L15.9932 20.161C15.5956 20.1323 15.2079 20.2929 14.9471 20.5943L12.9552 22.8962C12.4514 23.4783 11.5486 23.4783 11.0448 22.8962L9.05295 20.5943C8.79213 20.2929 8.40435 20.1323 8.0068 20.161L4.97067 20.3802C4.20283 20.4356 3.5644 19.7972 3.61983 19.0293L3.83904 15.9932C3.86774 15.5956 3.70711 15.2079 3.40571 14.9471L1.10384 12.9552C0.521699 12.4514 0.5217 11.5486 1.10384 11.0448L3.40571 9.05295C3.70711 8.79213 3.86774 8.40435 3.83903 8.0068L3.61983 4.97067C3.5644 4.20283 4.20283 3.5644 4.97067 3.61983L8.0068 3.83904C8.40435 3.86774 8.79213 3.70711 9.05295 3.40571L11.0448 1.10384Z" fill="#0866FF"/>
    <path fill-rule="evenodd" clip-rule="evenodd" d="M16.875 9.02171C17.1118 9.2611 17.1118 9.64924 16.875 9.88863L11.2161 15.61C10.9793 15.8494 10.5955 15.8494 10.3586 15.61L7.12496 12.3406C6.88818 12.1012 6.88818 11.7131 7.12496 11.4738C7.36174 11.2344 7.74564 11.2344 7.98242 11.4738L10.7874 14.3096L16.0176 9.02171C16.2544 8.78232 16.6383 8.78232 16.875 9.02171Z" fill="white"/>
</svg>
